<svg xmlns="http://www.w3.org/2000/svg" xmlns:xlink="http://www.w3.org/1999/xlink" width="64" zoomAndPan="magnify" viewBox="0 0 48 48" height="64" preserveAspectRatio="xMidYMid meet" version="1.0"><defs><clipPath id="4ba92d1224"><path d="M 22 0 L 47.507812 0 L 47.507812 26 L 22 26 Z M 22 0 " clip-rule="nonzero"/></clipPath><clipPath id="74b52ca2c5"><path d="M 0.488281 7 L 41 7 L 41 47 L 0.488281 47 Z M 0.488281 7 " clip-rule="nonzero"/></clipPath><clipPath id="907969cc77"><path d="M 9.34375 13.867188 L 9.695312 13.867188 L 9.695312 14.144531 L 9.34375 14.144531 Z M 9.34375 13.867188 " clip-rule="nonzero"/></clipPath><clipPath id="431d45ceeb"><path d="M 9.671875 14.03125 C 9.011719 14.328125 9.601562 13.886719 9.601562 13.886719 " clip-rule="nonzero"/></clipPath></defs><g clip-path="url(#4ba92d1224)"><path fill="#ffffff" d="M 39.945312 7.5625 C 35.640625 3.257812 29.6875 0.707031 22.257812 -0.0195312 L 22.074219 1.832031 C 29.066406 2.515625 34.632812 4.890625 38.628906 8.882812 C 42.621094 12.875 44.992188 18.445312 45.675781 25.433594 L 47.527344 25.253906 C 46.804688 17.824219 44.253906 11.871094 39.945312 7.5625 " fill-opacity="1" fill-rule="nonzero"/></g><path fill="#ffffff" d="M 32.433594 25.539062 L 34.273438 25.277344 C 33.746094 21.597656 32.523438 18.769531 30.628906 16.882812 C 28.738281 14.988281 25.914062 13.761719 22.234375 13.238281 L 21.972656 15.078125 C 25.242188 15.546875 27.710938 16.59375 29.3125 18.195312 C 30.914062 19.796875 31.964844 22.269531 32.433594 25.539062 " fill-opacity="1" fill-rule="nonzero"/><path fill="#ffffff" d="M 22.242188 6.59375 L 22.03125 8.441406 C 27.160156 9.03125 31.179688 10.746094 33.972656 13.535156 C 36.765625 16.332031 38.480469 20.347656 39.070312 25.480469 L 40.917969 25.269531 C 40.28125 19.707031 38.386719 15.316406 35.289062 12.222656 C 32.191406 9.125 27.800781 7.230469 22.242188 6.59375 " fill-opacity="1" fill-rule="nonzero"/><g clip-path="url(#74b52ca2c5)"><path fill="#ffffff" d="M 35.03125 31.96875 C 33.570312 30.507812 31.199219 30.507812 29.742188 31.96875 L 26.933594 34.773438 C 26.464844 35.242188 25.75 35.335938 25.167969 35.019531 C 22.59375 33.617188 20.144531 31.800781 17.925781 29.582031 C 15.707031 27.367188 13.894531 24.917969 12.492188 22.34375 C 12.175781 21.761719 12.269531 21.042969 12.738281 20.578125 L 15.542969 17.769531 C 17.003906 16.308594 17.003906 13.9375 15.542969 12.480469 L 11.15625 8.09375 C 9.695312 6.632812 7.328125 6.632812 5.867188 8.09375 L 2.679688 11.28125 C 1.148438 12.808594 0.511719 15.023438 1.011719 17.128906 C 2.605469 23.871094 6.160156 30.4375 11.613281 35.894531 C 17.070312 41.351562 23.636719 44.90625 30.378906 46.5 C 32.484375 47 34.699219 46.363281 36.230469 44.832031 L 39.417969 41.644531 C 40.878906 40.183594 40.878906 37.8125 39.417969 36.351562 L 35.03125 31.96875 " fill-opacity="1" fill-rule="nonzero"/></g><g clip-path="url(#907969cc77)"><g clip-path="url(#431d45ceeb)"><path fill="#ffffff" d="M 6.074219 10.945312 L 12.691406 10.945312 L 12.691406 17.339844 L 6.074219 17.339844 Z M 6.074219 10.945312 " fill-opacity="1" fill-rule="nonzero"/><path fill="#ffffff" d="M 6.074219 10.945312 L 12.691406 10.945312 L 12.691406 17.339844 L 6.074219 17.339844 Z M 6.074219 10.945312 " fill-opacity="1" fill-rule="nonzero"/></g></g></svg>